<?xml version="1.0" encoding="UTF-8"?>
<svg id="uuid-5884d0e3-ee5e-43b5-a6ef-7bb665fc2fdb" data-name="Bensel_Media_Logo" xmlns="http://www.w3.org/2000/svg" viewBox="0 0 708.07 251.3">
  <defs>
    <style>
      .uuid-3d2af9dc-3a8f-427a-8eba-eac353d9a211 {
        fill: #010101;
      }

      .uuid-ade4eec2-8bb4-4dd9-bf69-135403766de1 {
        fill: #ca151a;
      }
    </style>
  </defs>
  <rect id="uuid-d471ba73-2cf1-4167-84f6-f946cc88ccc7" data-name="Strich" class="uuid-ade4eec2-8bb4-4dd9-bf69-135403766de1" x="316.54" y="145.12" width="29.61" height="4.02" transform="translate(184.21 478.48) rotate(-90)"/>
  <circle id="uuid-12a0444a-2779-4996-be08-767ab9312400" data-name="Kreis" class="uuid-ade4eec2-8bb4-4dd9-bf69-135403766de1" cx="457.13" cy="88.44" r="9.84"/>
  <g id="uuid-05276315-79bd-4da4-9591-21e750bb5153" data-name="MEDIA">
    <path id="uuid-19819766-7f5c-468e-ad0f-bfd9bb6671a5" data-name="A" class="uuid-3d2af9dc-3a8f-427a-8eba-eac353d9a211" d="M457.14,144.98v12.54h-16.88c-3.05,0-5.53-1.9-5.53-4.18v-6.4h16.58v-1.73h-16.58v-4.41h16.88c3.05,0,5.53,1.9,5.53,4.18ZM451.31,150.8h-10.75v2.31h10.75v-2.31Z"/>
    <path id="uuid-9a15761d-bdb9-4c94-9316-cd47922f68bd" data-name="I" class="uuid-3d2af9dc-3a8f-427a-8eba-eac353d9a211" d="M431.8,135.32v3.75h-5.83v-3.75h5.83ZM425.97,140.8h5.83v16.72h-5.83v-16.72Z"/>
    <path id="uuid-c5dd248c-f391-41c0-b2ee-daad81129e03" data-name="D" class="uuid-3d2af9dc-3a8f-427a-8eba-eac353d9a211" d="M421.9,135.32v22.19h-16.92c-3.05,0-5.53-1.9-5.53-4.18v-8.36c0-2.28,2.48-4.18,5.53-4.18h11.09v-5.48h5.83ZM405.32,153.1h10.75v-7.9h-10.75v7.9Z"/>
    <path id="uuid-a4988cea-35c5-40b8-afe8-16d896242474" data-name="E" class="uuid-3d2af9dc-3a8f-427a-8eba-eac353d9a211" d="M396.56,144.98v6.4h-16.58v1.73h16.58v4.41h-16.88c-3.01,0-5.53-1.9-5.53-4.18v-8.36c0-2.28,2.52-4.18,5.53-4.18h11.36c3.05,0,5.53,1.9,5.53,4.18ZM390.73,147.51v-2.31h-10.75v2.31h10.75Z"/>
    <path id="uuid-beddb763-cc24-49c5-bd16-0a3820d6db01" data-name="M" class="uuid-3d2af9dc-3a8f-427a-8eba-eac353d9a211" d="M363.64,136.76h6.13v20.75h-5.94v-13.92c-3.09,2.77-6.4,5.82-9.45,8.53l-9.49-8.5v13.89h-5.91v-20.75h6.1l9.3,8.39,9.26-8.39Z"/>
  </g>
  <g id="uuid-0845cf5f-6fa6-4e9c-bd26-f16a841cfec1" data-name="BENSEL">
    <g>
      <polygon id="uuid-bb5b7d14-b33e-4f06-96cb-61f5ce3aaf88" data-name="L" class="uuid-3d2af9dc-3a8f-427a-8eba-eac353d9a211" points="420.27 125.26 420.27 88.47 428.17 88.47 428.17 117.3 457.13 117.3 457.13 125.26 420.27 125.26"/>
      <polygon id="uuid-c8721f25-33bf-4ed9-b7bb-94995aed21ee" data-name="E" class="uuid-3d2af9dc-3a8f-427a-8eba-eac353d9a211" points="381.41 125.26 381.41 88.53 415.34 88.53 415.34 96.48 389.42 96.48 389.42 102.91 410.28 102.91 410.28 110.87 389.42 110.87 389.42 117.3 415.34 117.3 415.34 125.26 381.41 125.26"/>
      <path id="uuid-0edf8b5b-98aa-4f2c-8444-e8861719e2b4" data-name="S" class="uuid-3d2af9dc-3a8f-427a-8eba-eac353d9a211" d="M346.52,125.26c-1.36,0-2.62-.34-3.77-1.02-1.16-.68-2.07-1.6-2.75-2.75-.68-1.16-1.02-2.41-1.02-3.77v-3.42h7.91v3.01h20.81v-6.43h-21.17c-1.36,0-2.62-.34-3.77-1.02-1.16-.68-2.07-1.59-2.75-2.73-.68-1.14-1.02-2.41-1.02-3.8v-7.24c0-1.39.34-2.66,1.02-3.8.68-1.14,1.6-2.05,2.75-2.73,1.16-.68,2.41-1.02,3.77-1.02h21.63c1.36,0,2.61.34,3.75,1.02,1.14.68,2.06,1.59,2.75,2.73.7,1.14,1.05,2.41,1.05,3.8v3.42h-8.01v-3.01h-20.81v6.43h21.27c1.36,0,2.61.34,3.75,1.02,1.14.68,2.06,1.59,2.75,2.73.7,1.14,1.05,2.41,1.05,3.8v7.24c0,1.36-.35,2.62-1.05,3.77-.7,1.16-1.62,2.07-2.75,2.75-1.14.68-2.39,1.02-3.75,1.02h-21.63Z"/>
      <polygon id="uuid-546747a7-f609-4a6e-a395-714af5c175b9" data-name="N" class="uuid-3d2af9dc-3a8f-427a-8eba-eac353d9a211" points="296.63 125.26 296.63 88.53 304.79 88.53 325.35 113.01 325.35 88.53 333.36 88.53 333.36 125.26 325.2 125.26 304.54 100.67 304.54 125.26 296.63 125.26"/>
      <rect id="uuid-201f41ca-975a-4ed7-b368-6e19449a73ab" data-name="E (unten)" class="uuid-3d2af9dc-3a8f-427a-8eba-eac353d9a211" x="257.66" y="117.3" width="33.92" height="7.96"/>
      <rect id="uuid-7c2fe5ce-65e5-4bd9-bbb9-9620a9a7c253" data-name="E (mitte)" class="uuid-3d2af9dc-3a8f-427a-8eba-eac353d9a211" x="257.66" y="102.91" width="33.92" height="7.96"/>
      <rect id="uuid-819eb3a3-69b6-43fd-8467-5180e71e961b" data-name="E (oben)" class="uuid-3d2af9dc-3a8f-427a-8eba-eac353d9a211" x="257.66" y="88.53" width="33.92" height="7.96"/>
      <path id="uuid-9c6159e3-296b-40b0-98ae-341d0266a88e" data-name="B" class="uuid-3d2af9dc-3a8f-427a-8eba-eac353d9a211" d="M215.27,88.53h27.75c1.36,0,2.61.34,3.75,1.02,1.14.68,2.06,1.59,2.75,2.73.7,1.14,1.05,2.41,1.05,3.8v6.89c0,.44-.03.86-.08,1.25-.05.39-.15.76-.28,1.1.51.65.94,1.39,1.28,2.24.34.85.51,1.7.51,2.55v7.6c0,1.36-.35,2.62-1.05,3.77-.7,1.16-1.62,2.07-2.75,2.75-1.14.68-2.41,1.02-3.8,1.02h-29.13v-36.73ZM242.56,102.61v-6.12h-19.38v6.12h19.38ZM243.99,117.3v-6.73h-20.81v6.73h20.81Z"/>
    </g>
    <g>
      <polygon id="uuid-10ace611-9d46-4cb6-a79a-db08c9d63c11" data-name="L" class="uuid-3d2af9dc-3a8f-427a-8eba-eac353d9a211" points="420.27 125.26 420.27 88.47 428.17 88.47 428.17 117.3 457.13 117.3 457.13 125.26 420.27 125.26"/>
      <polygon id="uuid-f3703677-f55b-4726-88a9-1cd46dff6192" data-name="E" class="uuid-3d2af9dc-3a8f-427a-8eba-eac353d9a211" points="381.41 125.26 381.41 88.53 415.34 88.53 415.34 96.48 389.42 96.48 389.42 102.91 410.28 102.91 410.28 110.87 389.42 110.87 389.42 117.3 415.34 117.3 415.34 125.26 381.41 125.26"/>
      <path id="uuid-4c92d6bd-f91d-4844-9864-936fa32660b2" data-name="S" class="uuid-3d2af9dc-3a8f-427a-8eba-eac353d9a211" d="M346.52,125.26c-1.36,0-2.62-.34-3.77-1.02-1.16-.68-2.07-1.6-2.75-2.75-.68-1.16-1.02-2.41-1.02-3.77v-3.42h7.91v3.01h20.81v-6.43h-21.17c-1.36,0-2.62-.34-3.77-1.02-1.16-.68-2.07-1.59-2.75-2.73-.68-1.14-1.02-2.41-1.02-3.8v-7.24c0-1.39.34-2.66,1.02-3.8.68-1.14,1.6-2.05,2.75-2.73,1.16-.68,2.41-1.02,3.77-1.02h21.63c1.36,0,2.61.34,3.75,1.02,1.14.68,2.06,1.59,2.75,2.73.7,1.14,1.05,2.41,1.05,3.8v3.42h-8.01v-3.01h-20.81v6.43h21.27c1.36,0,2.61.34,3.75,1.02,1.14.68,2.06,1.59,2.75,2.73.7,1.14,1.05,2.41,1.05,3.8v7.24c0,1.36-.35,2.62-1.05,3.77-.7,1.16-1.62,2.07-2.75,2.75-1.14.68-2.39,1.02-3.75,1.02h-21.63Z"/>
      <polygon id="uuid-8c5f0e9f-6af1-4b5b-8949-6060f21f20e7" data-name="N" class="uuid-3d2af9dc-3a8f-427a-8eba-eac353d9a211" points="296.63 125.26 296.63 88.53 304.79 88.53 325.35 113.01 325.35 88.53 333.36 88.53 333.36 125.26 325.2 125.26 304.54 100.67 304.54 125.26 296.63 125.26"/>
      <rect id="uuid-74e699c9-34bb-42d9-a4f9-b8602aeaee81" data-name="E (unten)" class="uuid-3d2af9dc-3a8f-427a-8eba-eac353d9a211" x="257.66" y="117.3" width="33.92" height="7.96"/>
      <rect id="uuid-85edb4db-8821-4106-b0ab-27da79bfb6c5" data-name="E (mitte)" class="uuid-3d2af9dc-3a8f-427a-8eba-eac353d9a211" x="257.66" y="102.91" width="33.92" height="7.96"/>
      <rect id="uuid-fb1ec74b-4816-4125-b110-ffad66e528c6" data-name="E (oben)" class="uuid-3d2af9dc-3a8f-427a-8eba-eac353d9a211" x="257.66" y="88.53" width="33.92" height="7.96"/>
      <path id="uuid-df18070c-536d-4cfe-8e95-25351567658b" data-name="B" class="uuid-3d2af9dc-3a8f-427a-8eba-eac353d9a211" d="M215.27,88.53h27.75c1.36,0,2.61.34,3.75,1.02,1.14.68,2.06,1.59,2.75,2.73.7,1.14,1.05,2.41,1.05,3.8v6.89c0,.44-.03.86-.08,1.25-.05.39-.15.76-.28,1.1.51.65.94,1.39,1.28,2.24.34.85.51,1.7.51,2.55v7.6c0,1.36-.35,2.62-1.05,3.77-.7,1.16-1.62,2.07-2.75,2.75-1.14.68-2.41,1.02-3.8,1.02h-29.13v-36.73ZM242.56,102.61v-6.12h-19.38v6.12h19.38ZM243.99,117.3v-6.73h-20.81v6.73h20.81Z"/>
    </g>
  </g>
</svg>